<?xml version="1.0" encoding="iso-8859-1"?>
<!-- Uploaded to: SVG Repo, www.svgrepo.com, Generator: SVG Repo Mixer Tools -->
<svg version="1.1" id="Layer_1" xmlns="http://www.w3.org/2000/svg" xmlns:xlink="http://www.w3.org/1999/xlink" 
	 viewBox="0 0 512 512" xml:space="preserve">
<g>
	<rect x="245.374" y="1.04" style="fill:#505F65;" width="22.21" height="502.626"/>
	<polygon style="fill:#505F65;" points="244.033,368.034 52.558,368.034 12.667,320.165 52.558,272.296 244.033,272.296 	"/>
</g>
<polygon style="fill:#89989F;" points="132.339,368.034 244.033,368.034 244.033,272.296 52.558,272.296 "/>
<polygon style="fill:#BDCCD4;" points="267.967,248.362 459.442,248.362 499.333,200.493 459.442,152.624 267.967,152.624 "/>
<polygon style="fill:#89989F;" points="379.661,248.362 267.967,248.362 267.967,152.624 459.442,152.624 "/>
<polygon style="fill:#505F65;" points="244.033,128.689 52.558,128.689 12.667,80.821 52.558,32.952 244.033,32.952 "/>
<polygon style="fill:#89989F;" points="132.339,128.689 244.033,128.689 244.033,32.952 52.558,32.952 "/>
<path d="M251.853,136.51H48.894L2.486,80.821l46.408-55.69h202.96V136.51H251.853z M56.22,120.869h179.991V40.772H56.22
	L22.847,80.821L56.22,120.869z"/>
<path d="M251.853,375.855H48.894l-46.408-55.69l46.407-55.689h202.96V375.855z M56.22,360.213h179.991v-80.096H56.22l-33.373,40.048
	L56.22,360.213z"/>
<rect x="260.234" y="25.026" width="15.642" height="111.576"/>
<path d="M463.106,256.182H260.147V144.803h202.96l46.407,55.69L463.106,256.182z M275.789,240.541H455.78l33.373-40.048
	l-33.373-40.049H275.789V240.541z"/>
<rect x="235.207" width="41.711" height="15.642"/>
<polygon points="298.819,496.358 298.819,488.016 283.178,488.016 283.178,496.358 275.878,496.358 275.878,263.821 
	260.237,263.821 260.237,496.358 251.895,496.358 251.895,383.739 236.253,383.739 236.253,496.358 226.868,496.358 
	226.868,488.016 211.227,488.016 211.227,496.358 196.628,496.358 196.628,512 315.504,512 315.504,496.358 "/>
<rect x="236.25" y="143.902" width="15.642" height="111.576"/>
<g>
	<circle style="fill:#FFFFFF;" cx="100.429" cy="80.825" r="23.935"/>
	<circle style="fill:#FFFFFF;" cx="100.429" cy="320.162" r="23.935"/>
</g>
<path d="M100.426,112.576c-17.509,0-31.755-14.245-31.755-31.755s14.245-31.755,31.755-31.755s31.755,14.245,31.755,31.755
	C132.182,98.33,117.936,112.576,100.426,112.576z M100.426,64.707c-8.885,0-16.114,7.228-16.114,16.114s7.228,16.114,16.114,16.114
	s16.114-7.228,16.114-16.114S109.311,64.707,100.426,64.707z"/>
<rect x="147.615" y="57.352" style="fill:#FFFFFF;" width="63.609" height="15.642"/>
<rect x="147.615" y="89.678" width="16.684" height="15.642"/>
<rect x="171.598" y="89.678" style="fill:#FFFFFF;" width="16.684" height="15.642"/>
<rect x="196.625" y="89.678" width="14.599" height="15.642"/>
<path d="M100.426,351.92c-17.509,0-31.755-14.245-31.755-31.755s14.245-31.755,31.755-31.755s31.755,14.245,31.755,31.755
	S117.936,351.92,100.426,351.92z M100.426,304.052c-8.885,0-16.114,7.228-16.114,16.114s7.228,16.114,16.114,16.114
	s16.114-7.228,16.114-16.114S109.311,304.052,100.426,304.052z"/>
<rect x="147.615" y="297.189" style="fill:#FFFFFF;" width="63.609" height="15.642"/>
<rect x="147.615" y="327.43" width="16.684" height="15.642"/>
<rect x="171.598" y="327.43" style="fill:#FFFFFF;" width="16.684" height="15.642"/>
<rect x="196.625" y="327.43" width="14.599" height="15.642"/>
<circle style="fill:#FFFFFF;" cx="411.571" cy="200.493" r="23.935"/>
<path d="M411.574,232.248c-17.51,0-31.755-14.245-31.755-31.755s14.245-31.755,31.755-31.755s31.755,14.245,31.755,31.755
	S429.083,232.248,411.574,232.248z M411.574,184.379c-8.885,0-16.114,7.228-16.114,16.114c0,8.884,7.228,16.114,16.114,16.114
	s16.114-7.228,16.114-16.114C427.688,191.608,420.458,184.379,411.574,184.379z"/>
<rect x="299.859" y="177.271" style="fill:#FFFFFF;" width="63.609" height="15.642"/>
<rect x="347.826" y="209.597" width="15.642" height="15.642"/>
<rect x="323.843" y="209.597" style="fill:#FFFFFF;" width="15.642" height="15.642"/>
<rect x="299.859" y="209.597" width="15.642" height="15.642"/>
</svg>