<?xml version="1.0" encoding="utf-8"?>
<!-- Uploaded to: SVG Repo, www.svgrepo.com, Generator: SVG Repo Mixer Tools -->
<svg width="800px" height="800px" viewBox="0 0 32 32" fill="none" xmlns="http://www.w3.org/2000/svg">
<g clip-path="url(#clip0_901_2902)">
<path d="M31 8V31H21V7H30C31 7 31 8 31 8Z" fill="#FFE6EA"/>
<path d="M21 31H1V2C1 1.45 1.45 1 2 1H20C20.55 1 21 1.45 21 2V31Z" fill="#FFC44D"/>
<path d="M8 31H14V25H8V31Z" fill="#668077"/>
<path d="M21 28V2C21 1.447 20.553 1 20 1H2C1.447 1 1 1.447 1 2V31H8V25H14V31H31V8C31 8 31 7 30 7H24M16 6V8M26 12V14M26 18V20M11 6V8M6 6V8M16 12V14M11 12V14M6 12V14M16 18V20M11 18V20M6 18V20" stroke="#000000" stroke-width="2" stroke-linecap="round" stroke-linejoin="round"/>
</g>
<defs>
<clipPath id="clip0_901_2902">
<rect width="32" height="32" fill="white"/>
</clipPath>
</defs>
</svg>