<?xml version="1.0" encoding="iso-8859-1"?>
<!-- Uploaded to: SVG Repo, www.svgrepo.com, Generator: SVG Repo Mixer Tools -->
<svg version="1.1" id="Layer_1" xmlns="http://www.w3.org/2000/svg" xmlns:xlink="http://www.w3.org/1999/xlink" 
	 viewBox="0 0 512 512" xml:space="preserve">
<polygon style="fill:#C6C3CB;" points="20.852,452.51 257.315,38.479 493.777,452.51 "/>
<polygon style="fill:#DFDFE2;" points="255.77,127.189 281.566,149.895 306.631,124.831 257.315,38.479 207.997,124.831 
	233.063,149.895 "/>
<g>
	<path style="fill:#77757E;" d="M208.214,249.821c-2.028,0-3.974-0.805-5.407-2.239l-20.776-20.776
		c-2.986-2.988-2.986-7.829,0-10.815c2.986-2.985,7.829-2.985,10.814,0l15.369,15.369l14.908-14.909
		c2.986-2.985,7.829-2.985,10.814,0c2.986,2.988,2.986,7.829,0,10.815l-20.315,20.316
		C212.187,249.016,210.242,249.821,208.214,249.821z"/>
	<path style="fill:#77757E;" d="M305.77,249.821c-2.028,0-3.974-0.805-5.407-2.239l-20.776-20.776
		c-2.986-2.988-2.986-7.829,0-10.815c2.986-2.985,7.829-2.985,10.814,0l15.369,15.369l14.908-14.909
		c2.986-2.985,7.829-2.985,10.814,0c2.986,2.988,2.986,7.829,0,10.815l-20.315,20.316
		C309.743,249.016,307.798,249.821,305.77,249.821z"/>
</g>
<path style="fill:#8EC1ED;" d="M484.847,102.996c10.538,0,19.081-8.543,19.081-19.081s-8.543-19.081-19.081-19.081
	c-3.176,0-6.169,0.78-8.803,2.153c-2.622-5.193-7.01-9.341-12.379-11.649c0-0.048,0.003-0.094,0.003-0.142
	c0-26.399-21.401-47.799-47.799-47.799c-21.862,0-40.283,14.683-45.973,34.72c-12.587,2.209-22.527,12.085-24.828,24.639
	c-2.524-1.231-5.357-1.923-8.353-1.923c-10.538,0-19.081,8.543-19.081,19.081s8.543,19.081,19.081,19.081H484.847z"/>
<g style="opacity:0.29;">
	<path style="fill:#77757E;" d="M493.776,452.51L363.608,224.594c-64.448,82.653-196.433,105.7-276.505,111.915L20.852,452.51
		H493.776z"/>
</g>
<g>
	<rect x="66.111" y="443.792" style="fill:#836948;" width="47.168" height="60.811"/>
	<rect x="233.73" y="443.792" style="fill:#836948;" width="47.168" height="60.811"/>
	<rect x="406.822" y="443.792" style="fill:#836948;" width="47.168" height="60.811"/>
</g>
<g>
	<rect x="66.111" y="443.792" style="fill:#564531;" width="47.168" height="25.593"/>
	<rect x="233.73" y="443.792" style="fill:#564531;" width="47.168" height="25.593"/>
	<rect x="406.822" y="443.792" style="fill:#564531;" width="47.168" height="25.593"/>
</g>
<path style="fill:#8EC1ED;" d="M167.214,102.996c10.538,0,19.081-8.543,19.081-19.081s-8.543-19.081-19.081-19.081
	c-3.176,0-6.169,0.78-8.803,2.153c-2.622-5.193-7.01-9.341-12.379-11.649c0-0.048,0.004-0.094,0.004-0.142
	c0-26.399-21.401-47.799-47.799-47.799c-21.862,0-40.283,14.683-45.973,34.72c-12.587,2.209-22.527,12.085-24.828,24.639
	c-2.524-1.231-5.357-1.923-8.353-1.923C8.543,64.834,0,73.377,0,83.915s8.543,19.081,19.081,19.081H167.214z"/>
<g>
	<polygon style="fill:#33A854;" points="174.745,452.51 142.522,396.94 163.815,396.94 130.103,338.803 149.407,338.803 
		90.388,237.026 31.369,338.803 50.674,338.803 16.962,396.94 38.254,396.94 6.031,452.51 	"/>
	<polygon style="fill:#33A854;" points="343.007,452.51 310.783,396.94 332.076,396.94 298.364,338.803 317.669,338.803 
		258.65,237.026 199.63,338.803 218.935,338.803 185.223,396.94 206.516,396.94 174.292,452.51 	"/>
	<polygon style="fill:#33A854;" points="512,452.51 479.777,396.94 501.071,396.94 467.358,338.803 486.662,338.803 
		427.643,237.026 368.624,338.803 387.929,338.803 354.216,396.94 375.51,396.94 343.286,452.51 	"/>
</g>
<g>
	<polygon style="opacity:0.28;fill:#266659;enable-background:new    ;" points="479.777,396.94 501.071,396.94 467.358,338.803 
		486.662,338.803 427.643,237.026 418.829,252.226 454.887,314.407 435.582,314.407 469.295,372.545 448.001,372.545 
		480.224,428.115 357.433,428.115 343.287,452.51 512,452.51 	"/>
	<polygon style="opacity:0.28;fill:#266659;enable-background:new    ;" points="309.447,396.94 330.741,396.94 297.028,338.803 
		316.334,338.803 257.315,237.026 248.5,252.226 284.558,314.407 265.254,314.407 298.966,372.545 277.673,372.545 309.896,428.115 
		187.104,428.115 172.958,452.51 341.672,452.51 	"/>
	<polygon style="opacity:0.28;fill:#266659;enable-background:new    ;" points="141.828,396.94 163.122,396.94 129.409,338.803 
		148.714,338.803 89.695,237.026 80.88,252.226 116.938,314.407 97.634,314.407 131.347,372.545 110.053,372.545 142.276,428.115 
		19.485,428.115 5.338,452.51 174.052,452.51 	"/>
</g>
</svg>